<svg width="80" height="91" viewBox="0 0 80 91" fill="none" xmlns="http://www.w3.org/2000/svg">
<g clip-path="url(#clip0_1_30)">
<path d="M50.7523 16.1699H77.5447C77.5447 16.1699 81.4397 17.3502 79.0791 20.655C76.7185 23.9598 69.6368 34.8184 69.6368 34.8184L79.5512 50.1621C79.5512 50.1621 80.2594 52.9948 77.8988 53.2309C75.5383 53.4669 75.5383 53.2309 75.5383 53.2309H41.546C41.546 53.2309 36.5888 52.0506 37.297 48.0376C38.0052 44.0247 42.0182 42.3723 42.0182 42.3723V16.1699H50.7523Z" fill="#443DE4"/>
<path d="M18.6485 5.54733H48.6915C51.392 5.54733 53.585 7.7403 53.585 10.4408V37.9414C53.585 40.649 51.3873 42.8443 48.6821 42.8443H18.6485V5.54733Z" fill="#635CF8"/>
<path d="M16.0047 0C18.8326 0 21.1271 2.29684 21.1271 5.12244V88.6796C21.1271 88.7221 21.0917 88.7575 21.0492 88.7575H11.0546C11.0121 88.7575 10.9767 88.7221 10.9767 88.6796V5.02802C10.9767 2.25198 13.2286 0 16.0047 0Z" fill="#C3DCE1"/>
<path d="M16.0047 0V88.7575H10.9767V4.46856C10.9767 4.46856 11.588 0.236057 16.0047 0Z" fill="#E1EEF1"/>
<path d="M29.3891 85.5707H2.71466C1.21539 85.5707 0 86.7861 0 88.2853C0 89.7846 1.21539 91 2.71466 91H29.3891C30.8884 91 32.1038 89.7846 32.1038 88.2853C32.1038 86.7861 30.8884 85.5707 29.3891 85.5707Z" fill="#90CC1C"/>
<path d="M2.71466 85.5707H16.0519V91H2.71466C1.21569 91 0 89.7843 0 88.2853C0 86.7864 1.21569 85.5707 2.71466 85.5707Z" fill="#B9DD39"/>
</g>
<defs>
<clipPath id="clip0_1_30">
<rect width="79.8392" height="91" fill="white"/>
</clipPath>
</defs>
</svg>
